<svg xmlns="http://www.w3.org/2000/svg" viewBox="0 0 64 64">
  <rect width="64" height="64" rx="20" fill="#3b185f"/>
  <g fill="none" stroke="#fff" stroke-width="3.4" stroke-linecap="round" stroke-linejoin="round">
    <path d="M32 27c-7 0-12-4.7-12-10.3 0-4.3 3.4-7.7 7.7-7.7 2.6 0 4.3 1.2 4.3 3.4 0-2.2 1.7-3.4 4.3-3.4 4.3 0 7.7 3.4 7.7 7.7C44 22.3 39 27 32 27Z"/>
    <path d="M37 32c0-7 4.7-12 10.3-12 4.3 0 7.7 3.4 7.7 7.7 0 2.6-1.2 4.3-3.4 4.3 2.2 0 3.4 1.7 3.4 4.3 0 4.3-3.4 7.7-7.7 7.7C41.7 44 37 39 37 32Z"/>
    <path d="M32 37c7 0 12 4.7 12 10.3 0 4.3-3.4 7.7-7.7 7.7-2.6 0-4.3-1.2-4.3-3.4 0 2.2-1.7 3.4-4.3 3.4-4.3 0-7.7-3.4-7.7-7.7C20 41.7 25 37 32 37Z"/>
    <path d="M27 32c0 7-4.7 12-10.3 12C12.4 44 9 40.6 9 36.3c0-2.6 1.2-4.3 3.4-4.3C10.2 32 9 30.3 9 27.7c0-4.3 3.4-7.7 7.7-7.7C22.3 20 27 25 27 32Z"/>
    <circle cx="32" cy="32" r="4"/>
  </g>
</svg>
